solid patch0
  facet normal -1 0 0
    outer loop
       vertex -0.00249999 -0.00249999 0
       vertex -0.00249999 -0.00249999 0.00749997
       vertex -0.00249999 0.00249999 0.00749997
    endloop
  endfacet
  facet normal -1 0 0
    outer loop
       vertex -0.00249999 -0.00249999 0
       vertex -0.00249999 0.00249999 0.00749997
       vertex -0.00249999 0.00249999 0
    endloop
  endfacet
  facet normal 1 0 0
    outer loop
       vertex 0.00249999 -0.00249999 0
       vertex 0.00249999 0.00249999 0
       vertex 0.00249999 0.00249999 0.00749997
    endloop
  endfacet
  facet normal 1 0 0
    outer loop
       vertex 0.00249999 -0.00249999 0
       vertex 0.00249999 0.00249999 0.00749997
       vertex 0.00249999 -0.00249999 0.00749997
    endloop
  endfacet
  facet normal 0 -1 0
    outer loop
       vertex -0.00249999 -0.00249999 0
       vertex 0.00249999 -0.00249999 0
       vertex 0.00249999 -0.00249999 0.00749997
    endloop
  endfacet
  facet normal 0 -1 0
    outer loop
       vertex -0.00249999 -0.00249999 0
       vertex 0.00249999 -0.00249999 0.00749997
       vertex -0.00249999 -0.00249999 0.00749997
    endloop
  endfacet
  facet normal 0 1 0
    outer loop
       vertex -0.00249999 0.00249999 0
       vertex -0.00249999 0.00249999 0.00749997
       vertex 0.00249999 0.00249999 0.00749997
    endloop
  endfacet
  facet normal 0 1 0
    outer loop
       vertex -0.00249999 0.00249999 0
       vertex 0.00249999 0.00249999 0.00749997
       vertex 0.00249999 0.00249999 0
    endloop
  endfacet
  facet normal 0 0 -1
    outer loop
       vertex -0.00249999 -0.00249999 0
       vertex -0.00249999 0.00249999 0
       vertex 0.00249999 0.00249999 0
    endloop
  endfacet
  facet normal 0 0 -1
    outer loop
       vertex -0.00249999 -0.00249999 0
       vertex 0.00249999 0.00249999 0
       vertex 0.00249999 -0.00249999 0
    endloop
  endfacet
  facet normal 0 0 1
    outer loop
       vertex -0.00249999 -0.00249999 0.00749997
       vertex 0.00249999 -0.00249999 0.00749997
       vertex 0.00249999 0.00249999 0.00749997
    endloop
  endfacet
  facet normal 0 0 1
    outer loop
       vertex -0.00249999 -0.00249999 0.00749997
       vertex 0.00249999 0.00249999 0.00749997
       vertex -0.00249999 0.00249999 0.00749997
    endloop
  endfacet
endsolid patch0
