solid zone0
 facet normal -1 0 0
  outer loop
   vertex -0.000999997 -0.00149999 0
   vertex -0.000999997 -0.00149999 0.00197999
   vertex -0.000999997 0.00149999 0.00197999
  endloop
 endfacet
 facet normal -1 0 0
  outer loop
   vertex -0.000999997 -0.00149999 0
   vertex -0.000999997 0.00149999 0.00197999
   vertex -0.000999997 0.00149999 0
  endloop
 endfacet
 facet normal 1 0 0
  outer loop
   vertex 0.000999997 -0.00149999 0
   vertex 0.000999997 0.00149999 0
   vertex 0.000999997 0.00149999 0.00197999
  endloop
 endfacet
 facet normal 1 0 0
  outer loop
   vertex 0.000999997 -0.00149999 0
   vertex 0.000999997 0.00149999 0.00197999
   vertex 0.000999997 -0.00149999 0.00197999
  endloop
 endfacet
 facet normal 0 -1 0
  outer loop
   vertex -0.000999997 -0.00149999 0
   vertex 0.000999997 -0.00149999 0
   vertex 0.000999997 -0.00149999 0.00197999
  endloop
 endfacet
 facet normal 0 -1 0
  outer loop
   vertex -0.000999997 -0.00149999 0
   vertex 0.000999997 -0.00149999 0.00197999
   vertex -0.000999997 -0.00149999 0.00197999
  endloop
 endfacet
 facet normal 0 1 0
  outer loop
   vertex -0.000999997 0.00149999 0
   vertex -0.000999997 0.00149999 0.00197999
   vertex 0.000999997 0.00149999 0.00197999
  endloop
 endfacet
 facet normal 0 1 0
  outer loop
   vertex -0.000999997 0.00149999 0
   vertex 0.000999997 0.00149999 0.00197999
   vertex 0.000999997 0.00149999 0
  endloop
 endfacet
 facet normal 0 0 -1
  outer loop
   vertex -0.000999997 -0.00149999 0
   vertex -0.000999997 0.00149999 0
   vertex 0.000999997 0.00149999 0
  endloop
 endfacet
 facet normal 0 0 -1
  outer loop
   vertex -0.000999997 -0.00149999 0
   vertex 0.000999997 0.00149999 0
   vertex 0.000999997 -0.00149999 0
  endloop
 endfacet
 facet normal 0 0 1
  outer loop
   vertex -0.000999997 -0.00149999 0.00197999
   vertex 0.000999997 -0.00149999 0.00197999
   vertex 0.000999997 0.00149999 0.00197999
  endloop
 endfacet
 facet normal 0 0 1
  outer loop
   vertex -0.000999997 -0.00149999 0.00197999
   vertex 0.000999997 0.00149999 0.00197999
   vertex -0.000999997 0.00149999 0.00197999
  endloop
 endfacet
endsolid zone0
